<svg width="417" height="417" viewBox="0 0 417 417" xmlns="http://www.w3.org/2000/svg">
<path d="M208.343 0.14502C93.6528 0.14502 0.342773 93.455 0.342773 208.145C0.342773 322.835 93.6528 416.145 208.343 416.145C323.033 416.145 416.343 322.835 416.343 208.145C416.343 93.455 323.033 0.14502 208.343 0.14502ZM288.343 224.145H224.343V288.145C224.343 292.388 222.657 296.458 219.656 299.459C216.656 302.459 212.586 304.145 208.343 304.145C204.099 304.145 200.03 302.459 197.029 299.459C194.028 296.458 192.343 292.388 192.343 288.145V224.145H128.343C124.099 224.145 120.03 222.459 117.029 219.459C114.028 216.458 112.343 212.388 112.343 208.145C112.343 203.902 114.028 199.832 117.029 196.831C120.03 193.831 124.099 192.145 128.343 192.145H192.343V128.145C192.343 123.902 194.028 119.832 197.029 116.831C200.03 113.831 204.099 112.145 208.343 112.145C212.586 112.145 216.656 113.831 219.656 116.831C222.657 119.832 224.343 123.902 224.343 128.145V192.145H288.343C292.586 192.145 296.656 193.831 299.656 196.831C302.657 199.832 304.343 203.902 304.343 208.145C304.343 212.388 302.657 216.458 299.656 219.459C296.656 222.459 292.586 224.145 288.343 224.145Z"/>
</svg>
