<svg width="136" height="26" viewBox="0 0 136 26" fill="none" xmlns="http://www.w3.org/2000/svg">
<g clip-path="url(#clip0_1610_64)">
<path fill-rule="evenodd" clip-rule="evenodd" d="M24.86 25.146C20.341 25.146 16.665 21.571 16.665 17.177C16.665 12.783 20.341 9.20703 24.86 9.20703C29.378 9.20703 33.054 12.783 33.054 17.177C33.054 21.571 29.378 25.146 24.86 25.146ZM24.86 12.556C22.24 12.556 20.109 14.63 20.109 17.177C20.109 19.724 22.241 21.797 24.859 21.797C27.481 21.797 29.611 19.724 29.611 17.177C29.611 14.63 27.479 12.557 24.86 12.557V12.556ZM8.195 25.146C3.676 25.146 0 21.571 0 17.177C0 12.783 3.676 9.20703 8.195 9.20703C10.673 9.20703 12.993 10.283 14.558 12.157C15.158 12.877 15.046 13.931 14.308 14.513C13.9511 14.7935 13.4994 14.9247 13.0478 14.8792C12.5962 14.8337 12.1798 14.615 11.886 14.269C11.4343 13.7304 10.8695 13.2978 10.2318 13.0021C9.59401 12.7064 8.89896 12.5548 8.196 12.558C5.576 12.558 3.445 14.631 3.445 17.178C3.445 19.726 5.576 21.798 8.195 21.798C8.89802 21.8013 9.59315 21.6498 10.231 21.3543C10.8689 21.0588 11.434 20.6265 11.886 20.088C12.1795 19.742 12.5957 19.5231 13.0471 19.4774C13.4986 19.4317 13.9501 19.5628 14.307 19.843C15.046 20.426 15.157 21.481 14.558 22.199C12.993 24.071 10.673 25.146 8.195 25.146ZM42.97 9.20803C38.452 9.20803 34.776 12.783 34.776 17.177V23.472C34.776 24.396 35.547 25.146 36.498 25.146C37.448 25.146 38.219 24.397 38.219 23.472V17.177C38.219 14.63 40.351 12.557 42.97 12.557C45.59 12.557 47.721 14.63 47.721 17.177V23.472C47.721 24.396 48.493 25.146 49.443 25.146C50.395 25.146 51.165 24.397 51.165 23.472V17.177C51.165 12.783 47.489 9.20703 42.97 9.20703V9.20803ZM100.846 9.20803C99.959 9.20803 99.229 9.86003 99.134 10.698C97.737 9.72482 96.0746 9.20465 94.372 9.20803C89.852 9.20803 86.177 12.783 86.177 17.177C86.177 21.571 89.853 25.147 94.372 25.147C96.147 25.147 97.792 24.593 99.134 23.656C99.229 24.494 99.959 25.146 100.846 25.146C101.796 25.146 102.567 24.397 102.567 23.472V10.882C102.567 9.95703 101.796 9.20803 100.846 9.20803ZM94.373 21.798C91.753 21.798 89.622 19.724 89.622 17.177C89.622 14.63 91.753 12.557 94.372 12.557C96.992 12.557 99.124 14.63 99.124 17.177C99.124 19.726 96.992 21.798 94.373 21.798ZM79.912 17.177L84.092 11.977C84.2312 11.805 84.3342 11.6066 84.3948 11.3938C84.4554 11.1809 84.4724 10.958 84.4447 10.7385C84.4171 10.5189 84.3454 10.3072 84.2339 10.116C84.1224 9.92489 83.9735 9.75821 83.796 9.62603C83.4343 9.35184 82.9803 9.22855 82.5296 9.28207C82.0789 9.33559 81.6664 9.56176 81.379 9.91303L77.726 14.457L74.074 9.91303C73.7867 9.56182 73.3745 9.33568 72.9239 9.28216C72.4733 9.22864 72.0196 9.3519 71.658 9.62603C71.4807 9.75829 71.332 9.92496 71.2207 10.1161C71.1094 10.3072 71.0379 10.5188 71.0103 10.7382C70.9828 10.9577 70.9998 11.1804 71.0604 11.3931C71.121 11.6058 71.2239 11.8041 71.363 11.976L75.543 17.177L71.363 22.377C71.224 22.5491 71.1212 22.7475 71.0607 22.9602C71.0001 23.173 70.9831 23.3958 71.0107 23.6152C71.0382 23.8347 71.1097 24.0464 71.221 24.2376C71.3322 24.4288 71.4808 24.5956 71.658 24.728C71.972 24.968 72.348 25.084 72.718 25.084C73.228 25.084 73.736 24.863 74.075 24.441L77.728 19.897L81.38 24.441C81.72 24.864 82.225 25.084 82.738 25.084C83.108 25.084 83.482 24.967 83.797 24.728C84.547 24.16 84.679 23.106 84.093 22.378L79.912 17.177ZM61.08 9.20803C56.562 9.20803 52.886 12.783 52.886 17.177C52.886 21.571 56.562 25.147 61.081 25.147H65.179C66.129 25.147 66.9 24.396 66.9 23.472C66.9 22.548 66.129 21.798 65.179 21.798H61.08C59.068 21.798 57.345 20.573 56.653 18.851H67.553C68.503 18.851 69.274 18.102 69.274 17.177C69.273 12.783 65.598 9.20703 61.08 9.20703V9.20803ZM56.652 15.503C57.342 13.78 59.067 12.557 61.081 12.557C63.094 12.557 64.819 13.78 65.51 15.503H56.652ZM113.812 24.126C113.81 24.11 113.803 24.094 113.799 24.078C113.797 24.0709 113.795 24.0635 113.794 24.056C113.386 22.494 112.124 21.265 110.519 20.865C110.498 20.858 110.475 20.853 110.454 20.847C110.388 20.831 110.32 20.8226 110.252 20.822C110.14 20.8204 110.03 20.8409 109.926 20.8821C109.822 20.9234 109.728 20.9847 109.648 21.0625C109.568 21.1404 109.504 21.2332 109.46 21.3357C109.416 21.4382 109.392 21.5485 109.391 21.66V23.47C109.391 24.395 110.161 25.145 111.113 25.145H112.973C113.449 25.145 113.834 24.771 113.834 24.308C113.834 24.2467 113.827 24.1856 113.812 24.126Z" fill="white"/>
<path fill-rule="evenodd" clip-rule="evenodd" d="M133.526 7.551H127.483V1.674C127.483 0.75 126.713 0 125.762 0H118.876C117.926 0 117.154 0.749 117.154 1.674V7.551H111.111C110.161 7.551 109.389 8.301 109.389 9.226V11.806C109.389 12.25 109.746 12.613 110.194 12.641V12.642C116.668 13.031 121.848 18.068 122.247 24.364H122.25C122.267 24.5788 122.365 24.7791 122.525 24.9243C122.684 25.0695 122.893 25.1487 123.108 25.146H125.762C126.712 25.146 127.483 24.397 127.483 23.472V17.595H133.526C134.476 17.595 135.248 16.846 135.248 15.921V9.224C135.248 8.3 134.477 7.551 133.526 7.551Z" fill="#EF4056"/>
<path fill-rule="evenodd" clip-rule="evenodd" d="M119.456 24.222V24.217C119.006 19.533 115.176 15.804 110.362 15.358L110.325 15.354C110.32 15.354 110.315 15.354 110.308 15.352L110.304 15.353C110.188 15.3443 110.072 15.3593 109.963 15.3971C109.853 15.435 109.752 15.4949 109.667 15.5731C109.581 15.6513 109.513 15.7462 109.465 15.852C109.418 15.9577 109.393 16.0721 109.391 16.188V17.213C109.391 17.645 109.727 18 110.158 18.045L110.161 18.046C113.594 18.396 116.324 21.045 116.689 24.382C116.711 24.5933 116.811 24.7887 116.969 24.9299C117.128 25.0711 117.334 25.1479 117.546 25.145H118.6C119.076 25.145 119.46 24.771 119.46 24.308C119.46 24.28 119.458 24.252 119.456 24.222Z" fill="white"/>
</g>
<defs>
<clipPath id="clip0_1610_64">
<rect width="136" height="26" fill="white"/>
</clipPath>
</defs>
</svg>
