<svg width="893" height="175" viewBox="0 0 893 175" fill="none" xmlns="http://www.w3.org/2000/svg">
<path fill-rule="evenodd" clip-rule="evenodd" d="M163.966 174.088C134.161 174.088 109.915 149.338 109.915 118.918C109.915 88.4977 134.161 63.7408 163.966 63.7408C193.765 63.7408 218.011 88.4977 218.011 118.918C218.011 149.338 193.765 174.088 163.966 174.088ZM163.966 86.9262C146.686 86.9262 132.631 101.285 132.631 118.918C132.631 136.551 146.692 150.902 163.96 150.902C181.253 150.902 195.302 136.551 195.302 118.918C195.302 101.285 181.24 86.9331 163.966 86.9331V86.9262ZM54.0508 174.088C24.2454 174.088 0 149.338 0 118.918C0 88.4977 24.2454 63.7408 54.0508 63.7408C70.3947 63.7408 85.6965 71.19 96.0186 84.1639C99.9759 89.1485 99.2372 96.4454 94.3697 100.475C92.0157 102.416 89.0367 103.325 86.0581 103.01C83.0795 102.695 80.3329 101.181 78.3952 98.7854C75.4159 95.0564 71.6908 92.0618 67.4845 90.0146C63.2782 87.9673 58.6939 86.9176 54.0574 86.94C36.777 86.94 22.7218 101.292 22.7218 118.925C22.7218 136.565 36.777 150.909 54.0508 150.909C58.6877 150.932 63.2724 149.883 67.4797 147.837C71.687 145.791 75.4137 142.798 78.3952 139.071C80.3309 136.675 83.0758 135.16 86.0533 134.844C89.0309 134.527 92.0093 135.434 94.3631 137.375C99.2372 141.411 99.9693 148.715 96.0186 153.685C85.6965 166.645 70.3947 174.088 54.0508 174.088ZM283.412 63.7477C253.614 63.7477 229.368 88.4977 229.368 118.918V162.498C229.368 168.895 234.453 174.088 240.726 174.088C246.992 174.088 252.077 168.902 252.077 162.498V118.918C252.077 101.285 266.139 86.9331 283.412 86.9331C300.693 86.9331 314.748 101.285 314.748 118.918V162.498C314.748 168.895 319.84 174.088 326.106 174.088C332.385 174.088 337.463 168.902 337.463 162.498V118.918C337.463 88.4977 313.218 63.7408 283.412 63.7408V63.7477ZM665.139 63.7477C659.288 63.7477 654.474 68.2616 653.847 74.0631C644.633 67.3255 633.668 63.7243 622.439 63.7477C592.627 63.7477 568.388 88.4977 568.388 118.918C568.388 149.338 592.633 174.095 622.439 174.095C634.146 174.095 644.996 170.259 653.847 163.772C654.474 169.574 659.288 174.088 665.139 174.088C671.405 174.088 676.49 168.902 676.49 162.498V75.3369C676.49 68.9331 671.405 63.7477 665.139 63.7477ZM622.445 150.909C605.165 150.909 591.11 136.551 591.11 118.918C591.11 101.285 605.165 86.9331 622.439 86.9331C639.719 86.9331 653.781 101.285 653.781 118.918C653.781 136.565 639.719 150.909 622.445 150.909ZM527.067 118.918L554.636 82.9177C555.554 81.7266 556.233 80.3531 556.633 78.8797C557.033 77.4062 557.145 75.8632 556.963 74.3432C556.78 72.8231 556.307 71.3574 555.572 70.034C554.837 68.7106 553.854 67.5567 552.684 66.6416C550.298 64.7433 547.304 63.8897 544.331 64.2603C541.359 64.6308 538.638 66.1966 536.742 68.6285L512.649 100.087L488.562 68.6285C486.667 66.197 483.948 64.6315 480.976 64.2609C478.004 63.8904 475.011 64.7437 472.627 66.6416C471.458 67.5572 470.477 68.7111 469.743 70.0342C469.008 71.3573 468.536 72.8223 468.355 74.3415C468.173 75.8606 468.285 77.4027 468.685 78.8752C469.085 80.3477 469.764 81.7203 470.681 82.9108L498.251 118.918L470.681 154.918C469.764 156.109 469.086 157.482 468.687 158.955C468.288 160.428 468.176 161.971 468.357 163.49C468.539 165.009 469.011 166.475 469.744 167.799C470.478 169.122 471.458 170.277 472.627 171.194C474.698 172.855 477.178 173.658 479.618 173.658C482.982 173.658 486.332 172.128 488.568 169.207L512.662 137.748L536.749 169.207C538.991 172.135 542.322 173.658 545.706 173.658C548.146 173.658 550.613 172.848 552.69 171.194C557.637 167.262 558.508 159.965 554.643 154.925L527.067 118.918ZM402.859 63.7477C373.06 63.7477 348.814 88.4977 348.814 118.918C348.814 149.338 373.06 174.095 402.865 174.095H429.894C436.16 174.095 441.245 168.895 441.245 162.498C441.245 156.102 436.16 150.909 429.894 150.909H402.859C389.588 150.909 378.224 142.428 373.66 130.507H445.552C451.818 130.507 456.903 125.322 456.903 118.918C456.896 88.4977 432.657 63.7408 402.859 63.7408V63.7477ZM373.653 107.328C378.204 95.4 389.582 86.9331 402.865 86.9331C416.142 86.9331 427.519 95.4 432.077 107.328H373.653ZM750.657 167.026C750.644 166.915 750.598 166.805 750.571 166.694C750.556 166.644 750.545 166.593 750.538 166.542C747.847 155.728 739.524 147.219 728.938 144.45C728.799 144.402 728.648 144.367 728.509 144.325C728.073 144.214 727.626 144.156 727.177 144.152C726.441 144.141 725.71 144.283 725.026 144.568C724.342 144.854 723.719 145.279 723.192 145.817C722.664 146.356 722.243 146.999 721.953 147.709C721.662 148.418 721.507 149.181 721.498 149.954V162.485C721.498 168.888 726.577 174.081 732.856 174.081H745.123C748.263 174.081 750.802 171.492 750.802 168.286C750.802 167.862 750.754 167.439 750.657 167.026Z" fill="white"/>
<path fill-rule="evenodd" clip-rule="evenodd" d="M880.683 52.2762H840.825V11.5892C840.825 5.19231 835.747 0 829.474 0H784.057C777.791 0 772.7 5.18538 772.7 11.5892V52.2762H732.842C726.577 52.2762 721.485 57.4685 721.485 63.8723V81.7338C721.485 84.8077 723.839 87.3208 726.794 87.5146V87.5215C769.494 90.2146 803.659 125.086 806.291 168.674H806.311C806.424 170.161 807.072 171.548 808.123 172.553C809.173 173.558 810.548 174.107 811.97 174.088H829.474C835.74 174.088 840.825 168.902 840.825 162.498V121.812H880.683C886.948 121.812 892.04 116.626 892.04 110.222V63.8585C892.04 57.4615 886.955 52.2762 880.683 52.2762Z" fill="#EF4056"/>
<path fill-rule="evenodd" clip-rule="evenodd" d="M787.883 167.691V167.656C784.915 135.228 759.653 109.412 727.902 106.325L727.658 106.297C727.625 106.297 727.592 106.297 727.546 106.283L727.52 106.29C726.757 106.229 725.991 106.333 725.269 106.595C724.546 106.857 723.882 107.272 723.318 107.814C722.754 108.355 722.301 109.012 721.988 109.745C721.675 110.477 721.508 111.268 721.498 112.071V119.167C721.498 122.158 723.714 124.615 726.557 124.927L726.577 124.934C749.219 127.357 767.225 145.696 769.633 168.798C769.776 170.261 770.435 171.614 771.481 172.592C772.528 173.569 773.884 174.101 775.285 174.081H782.237C785.376 174.081 787.909 171.492 787.909 168.286C787.909 168.092 787.896 167.898 787.883 167.691Z" fill="white"/>
</svg>
